<svg width="140" height="141" viewBox="0 0 140 141" fill="none" xmlns="http://www.w3.org/2000/svg">
<g filter="url('#filter0_d_301_37')">
<path d="M130 66.5C130 99.6371 103.137 126.5 70 126.5C36.8629 126.5 10 99.6371 10 66.5C10 33.3629 36.8629 6.5 70 6.5C103.137 6.5 130 33.3629 130 66.5Z" fill="url('#paint0_radial_301_37')"></path>
<path d="M95.5 63.9019C97.5 65.0566 97.5 67.9434 95.5 69.0981L59.5 89.8827C57.5 91.0374 55 89.594 55 87.2846L55 45.7154C55 43.406 57.5 41.9626 59.5 43.1173L95.5 63.9019Z" fill="#D9D9D9"></path>
</g>
<defs>
<filter id="filter0_d_301_37" x="0" y="0.5" width="140" height="140" filterUnits="userSpaceOnUse" color-interpolation-filters="sRGB">
<feFlood flood-opacity="0" result="BackgroundImageFix"></feFlood>
<feColorMatrix in="SourceAlpha" type="matrix" values="0 0 0 0 0 0 0 0 0 0 0 0 0 0 0 0 0 0 127 0" result="hardAlpha"></feColorMatrix>
<feOffset dy="4"></feOffset>
<feGaussianBlur stdDeviation="5"></feGaussianBlur>
<feComposite in2="hardAlpha" operator="out"></feComposite>
<feColorMatrix type="matrix" values="0 0 0 0 0 0 0 0 0 0 0 0 0 0 0 0 0 0 0.25 0"></feColorMatrix>
<feBlend mode="normal" in2="BackgroundImageFix" result="effect1_dropShadow_301_37"></feBlend>
<feBlend mode="normal" in="SourceGraphic" in2="effect1_dropShadow_301_37" result="shape"></feBlend>
</filter>
<radialGradient id="paint0_radial_301_37" cx="0" cy="0" r="1" gradientUnits="userSpaceOnUse" gradientTransform="translate(70 66.5) rotate(90) scale(60)">
<stop offset="0.25" stop-color="#1FC1D7"></stop>
<stop offset="1" stop-color="#07606C"></stop>
</radialGradient>
</defs>
</svg>
